# xmcd CD database file
#
# Track frame offsets:
#	150
#	16647
#	31010
#	45777
#	57025
#	72310
#	84405
#	98055
#	115230
#	126857
#	147830
#	164060
#	178067
#	191792
#	202397
#	214260
#	225655
#	237572
#	246585
#	257792
#	270150
#	282510
#
# Disc length: 3925 seconds
#
# Revision: 4
# Processed by: cddbd v1.5.2PL0 Copyright (c) Steve Scherf et al.
# Submitted via: CDex 1.70beta2
#
DISCID=420f5316
DTITLE=Waylon Jennings - Lonesome, On'ry and Mean - Honky Tonk Heroes
DYEAR=1974
DGENRE=Country
TTITLE0=Lonesome, On'ry and Mean
TTITLE1=Freedom To Stay
TTITLE2=Lay It Down
TTITLE3=Gone To Denver
TTITLE4=Good Time Charlie's Got The Blues
TTITLE5=You Can Have Her
TTITLE6=Pretend I Never Happened
TTITLE7=San Francisco Mabel Joy
TTITLE8=Sandy Sends Her Joy
TTITLE9=Me And Bobby McGee
TTITLE10=Honky Tonk Heroes
TTITLE11=Old Five And Dimers (Like Me)
TTITLE12=Willy, The Wandering Gypsy And Me
TTITLE13=Low Down Freedom
TTITLE14=Omaha
TTITLE15=You Ask Me To
TTITLE16=Ride Me Down Easy
TTITLE17=Ain't No God In Mexico
TTITLE18=Black Rose
TTITLE19=We Had It All
TTITLE20=Slow Rollin' Low
TTITLE21=You Ask Me To (Single version)
EXTD=Lonesome, On'ry and Mean and Honky Tonk Heroes, recorded  - 1974 YEAR: 1974
EXTT0=
EXTT1=
EXTT2=
EXTT3=
EXTT4=
EXTT5=
EXTT6=
EXTT7=
EXTT8=
EXTT9=
EXTT10=
EXTT11=
EXTT12=
EXTT13=
EXTT14=
EXTT15=
EXTT16=
EXTT17=
EXTT18=
EXTT19=
EXTT20=
EXTT21=
PLAYORDER=
